<svg width="31" height="31" viewBox="0 0 31 31" fill="none" xmlns="http://www.w3.org/2000/svg">
<path d="M15.3634 16.9389C16.4241 16.9389 17.2839 16.0962 17.2839 15.0568C17.2839 14.0173 16.4241 13.1747 15.3634 13.1747C14.3028 13.1747 13.443 14.0173 13.443 15.0568C13.443 16.0962 14.3028 16.9389 15.3634 16.9389Z" fill="white"/>
<path d="M19.5756 22.7358L17.9241 21.0544L17.8344 20.9666L16.7693 19.9228C16.4171 19.5776 15.9205 19.4374 15.4275 19.4484C14.8337 19.4567 14.2441 19.3492 13.693 19.1323C13.1419 18.9153 12.6404 18.5931 12.2175 18.1845C11.7946 17.7759 11.4588 17.2889 11.2296 16.752C11.0004 16.2151 10.8824 15.6388 10.8825 15.0568C10.8936 14.5752 10.7534 14.0897 10.4093 13.7525L8.39869 11.782C7.27591 10.7098 5.4928 10.6819 4.50725 11.8814C3.84838 12.6833 3.25301 13.5351 2.72701 14.4294C2.61464 14.6202 2.55548 14.8366 2.55548 15.0568C2.55548 15.2771 2.61464 15.4934 2.72701 15.6842C3.53359 17.0518 7.84817 23.8399 15.3891 23.8399H15.7092C17.0013 23.8024 18.2782 23.5628 19.4918 23.1309C19.6582 23.0717 19.7018 22.8594 19.5756 22.7358Z" fill="white"/>
<path d="M10.9976 7.22738L14.0216 10.191C14.3738 10.5362 14.8703 10.6763 15.3634 10.6654C16.5518 10.6654 17.6916 11.128 18.532 11.9516C19.3723 12.7752 19.8444 13.8922 19.8444 15.0569C19.8333 15.5385 19.9735 16.0241 20.3175 16.3613L23.1988 19.185C23.8025 19.7766 24.7682 19.799 25.3493 19.1851C26.3597 18.1177 27.2488 16.944 27.9999 15.6843C28.1122 15.4935 28.1714 15.2772 28.1714 15.0569C28.1714 14.8367 28.1122 14.6203 27.9999 14.4296C27.1805 13.0368 22.6739 6.04793 15.0177 6.27379C13.6537 6.31344 12.3066 6.57825 11.033 7.05672C10.9622 7.08335 10.9436 7.1744 10.9976 7.22738Z" fill="white"/>
<path d="M26.5147 24.2037L24.8504 22.5851L22.2898 20.0756L10.1014 8.11797L8.2194 6.27351L6.03011 4.12792C5.91073 4.01093 5.76902 3.91813 5.61305 3.85481C5.45708 3.7915 5.28992 3.75891 5.1211 3.75891C4.95228 3.75891 4.78512 3.7915 4.62915 3.85481C4.47318 3.91813 4.33147 4.01093 4.21209 4.12792C3.97101 4.36419 3.83557 4.68464 3.83557 5.01878C3.83557 5.35292 3.97101 5.67337 4.21209 5.90964L7.07994 8.78298L9.32045 10.916L18.6794 20.0756L18.769 20.1634L20.4846 21.8448L21.24 22.5851L24.6967 25.9854C24.8158 26.103 24.9574 26.1963 25.1134 26.26C25.2694 26.3237 25.4367 26.3565 25.6057 26.3565C25.7748 26.3565 25.9421 26.3237 26.0981 26.26C26.2541 26.1963 26.3957 26.103 26.5147 25.9854C26.6347 25.8687 26.73 25.73 26.795 25.5771C26.86 25.4242 26.8935 25.2602 26.8935 25.0945C26.8935 24.9289 26.86 24.7649 26.795 24.612C26.73 24.4591 26.6347 24.3203 26.5147 24.2037Z" fill="white"/>
</svg>
