<svg width="15" height="6" viewBox="0 0 15 6" fill="none" xmlns="http://www.w3.org/2000/svg">
<path d="M10.5541 0H3.51804C2.58499 0 1.69017 0.36325 1.03041 1.00984C0.370649 1.65643 0 2.53339 0 3.44781V5.74635H2.34536V3.44781C2.34536 3.14301 2.46891 2.85068 2.68883 2.63515C2.90875 2.41962 3.20702 2.29854 3.51804 2.29854H10.5541C10.8651 2.29854 11.1634 2.41962 11.3833 2.63515C11.6032 2.85068 11.7268 3.14301 11.7268 3.44781V5.74635H14.0721V3.44781C14.0721 2.53339 13.7015 1.65643 13.0417 1.00984C12.382 0.36325 11.4871 0 10.5541 0Z" fill="white"/>
</svg>
